<svg xmlns="http://www.w3.org/2000/svg" viewBox="0 0 640 420" role="img" aria-labelledby="t d">
<title id="t">BBQイラスト</title><desc id="d">屋根付きデッキで楽しむバーベキュー</desc>
<defs><linearGradient id="g" x1="0" x2="1"><stop stop-color="#f3e5c4"/><stop offset="1" stop-color="#d4e5db"/></linearGradient></defs>
<rect width="640" height="420" rx="34" fill="url(#g)"/>
<path d="M70 118 L330 42 L570 118" fill="none" stroke="#355b5a" stroke-width="18" stroke-linecap="round"/>
<path d="M112 122 H536 V356 H112Z" fill="#fff8ef" opacity=".65"/>
<path d="M92 356 H554" stroke="#9b7d57" stroke-width="18" stroke-linecap="round"/>
<ellipse cx="320" cy="238" rx="126" ry="44" fill="#24383c"/>
<path d="M205 230 H435" stroke="#fff" stroke-width="6" opacity=".42"/><path d="M224 210 L256 260M292 204 L320 266M362 204 L390 260" stroke="#fff" stroke-width="5" opacity=".5"/>
<path d="M236 182 C216 150 252 143 236 112" fill="none" stroke="#f58555" stroke-width="11" stroke-linecap="round"/><path d="M318 178 C294 144 340 128 314 94" fill="none" stroke="#f58555" stroke-width="11" stroke-linecap="round"/><path d="M392 182 C374 150 410 138 394 110" fill="none" stroke="#f58555" stroke-width="11" stroke-linecap="round"/>
<circle cx="232" cy="220" r="16" fill="#b35336"/><rect x="290" y="205" width="72" height="30" rx="12" fill="#e0b654"/><circle cx="400" cy="221" r="18" fill="#79a868"/>
<path d="M256 276 L220 350M384 276 L420 350" stroke="#24383c" stroke-width="12" stroke-linecap="round"/>
<circle cx="158" cy="180" r="20" fill="#d88a4d"/><circle cx="488" cy="180" r="20" fill="#d88a4d"/>
</svg>
