<svg xmlns="http://www.w3.org/2000/svg" viewBox="0 0 640 420" role="img" aria-labelledby="t d">
<title id="t">三世代家族イラスト</title><desc id="d">三世代で集合する家族</desc>
<rect width="640" height="420" rx="34" fill="#f6efe4"/>
<circle cx="150" cy="146" r="38" fill="#e1a36b"/><circle cx="258" cy="124" r="43" fill="#c98e62"/><circle cx="380" cy="128" r="43" fill="#df9f6d"/><circle cx="500" cy="148" r="36" fill="#bc8059"/>
<path d="M92 340 C100 250 196 250 206 340Z" fill="#7fa597"/><path d="M184 344 C196 234 318 232 332 344Z" fill="#315b5c"/><path d="M312 344 C326 232 454 235 466 344Z" fill="#b96f44"/><path d="M448 340 C458 254 540 254 552 340Z" fill="#5f7768"/>
<path d="M118 185 C134 210 162 208 182 185" stroke="#714e37" stroke-width="8" fill="none" stroke-linecap="round"/><path d="M228 166 C246 190 278 190 296 166" stroke="#714e37" stroke-width="8" fill="none" stroke-linecap="round"/><path d="M350 170 C370 193 400 193 420 170" stroke="#714e37" stroke-width="8" fill="none" stroke-linecap="round"/><path d="M474 186 C490 208 515 208 532 186" stroke="#714e37" stroke-width="8" fill="none" stroke-linecap="round"/>
<path d="M90 360 H552" stroke="#e2c083" stroke-width="18" stroke-linecap="round"/>
<path d="M130 78 C225 32 348 34 476 86" stroke="#d19c5c" stroke-width="8" fill="none" stroke-linecap="round" opacity=".45"/>
<text x="320" y="394" text-anchor="middle" font-size="24" font-family="system-ui, sans-serif" fill="#355b5a">Yufuin Family BBQ</text>
</svg>
