<svg xmlns="http://www.w3.org/2000/svg" viewBox="0 0 640 420" role="img" aria-labelledby="t d">
<title id="t">ルート地図イラスト</title><desc id="d">八代と北九州から湯布院へ向かうルート</desc>
<rect width="640" height="420" rx="34" fill="#eef6f2"/>
<path d="M88 330 C160 260 226 298 290 214 C352 132 422 150 522 82" stroke="#2f5d57" stroke-width="18" fill="none" stroke-linecap="round" stroke-dasharray="1 34"/>
<path d="M130 90 C188 140 212 210 290 214" stroke="#d7864e" stroke-width="18" fill="none" stroke-linecap="round" stroke-dasharray="1 34"/>
<circle cx="88" cy="330" r="34" fill="#fff" stroke="#2f5d57" stroke-width="8"/><text x="88" y="339" text-anchor="middle" font-size="24" font-family="system-ui, sans-serif" fill="#2f5d57">八</text>
<circle cx="130" cy="90" r="34" fill="#fff" stroke="#d7864e" stroke-width="8"/><text x="130" y="99" text-anchor="middle" font-size="24" font-family="system-ui, sans-serif" fill="#d7864e">小</text>
<circle cx="290" cy="214" r="28" fill="#fff" stroke="#86a87c" stroke-width="7"/><text x="290" y="223" text-anchor="middle" font-size="22" font-family="system-ui, sans-serif" fill="#617a59">買</text>
<path d="M522 82 C558 132 586 160 586 200 C586 242 556 272 522 316 C486 272 458 242 458 200 C458 158 488 122 522 82Z" fill="#355b5a"/>
<circle cx="522" cy="199" r="35" fill="#f3e2bd"/><text x="522" y="207" text-anchor="middle" font-size="24" font-family="system-ui, sans-serif" fill="#355b5a">宿</text>
<path d="M40 365 C160 382 236 350 340 364 C458 380 540 350 610 365" stroke="#bfd0c2" stroke-width="14" fill="none" opacity=".9"/>
</svg>
