<svg xmlns="http://www.w3.org/2000/svg" viewBox="0 0 600 420" role="img" aria-labelledby="t d"><title id="t">秋月の歴史巻物イラスト</title><desc id="d">巻物、石垣、紅葉、城門を組み合わせたイラスト</desc><rect width="600" height="420" rx="30" fill="#eef2e8"/><path d="M64 310c91-57 156-34 238-44 97-12 139-65 234-33v87H64z" fill="#8ba17f" opacity=".52"/><rect x="97" y="92" width="404" height="236" rx="26" fill="#f7efd9" stroke="#b89a63" stroke-width="8"/><circle cx="101" cy="210" r="58" fill="#d2b37a"/><circle cx="500" cy="210" r="58" fill="#d2b37a"/><rect x="128" y="96" width="342" height="228" rx="15" fill="#fff8e8"/><path d="M194 145h215M194 192h258M194 239h186" stroke="#6a5a43" stroke-width="13" stroke-linecap="round"/><path d="M420 105c38 20 58 42 65 79" fill="none" stroke="#b35b3f" stroke-width="9" stroke-linecap="round"/><path d="M397 110l45 14-31 32z" fill="#c26b44"/><g fill="#486142"><rect x="248" y="281" width="28" height="70"/><rect x="324" y="281" width="28" height="70"/><path d="M231 278h137v24H231z"/><path d="M218 272l83-48 83 48z"/></g></svg>