<svg xmlns="http://www.w3.org/2000/svg" viewBox="0 0 600 420" role="img" aria-labelledby="t d"><title id="t">蒸し雑煮のイラスト</title><desc id="d">湯気の立つ椀と山の自然を表すイラスト</desc><rect width="600" height="420" rx="30" fill="#f4e8d3"/><circle cx="480" cy="86" r="48" fill="#d28a4f" opacity=".8"/><path d="M0 235l120-125 78 78 105-120 127 136 84-78 86 90v204H0z" fill="#c4d1b7"/><path d="M122 273h356c-14 82-73 124-178 124s-164-42-178-124z" fill="#2b342d"/><ellipse cx="300" cy="270" rx="193" ry="59" fill="#4c624f"/><ellipse cx="300" cy="260" rx="150" ry="36" fill="#fbf7ec"/><circle cx="263" cy="258" r="22" fill="#f1d4b3"/><rect x="314" y="241" width="54" height="26" rx="13" fill="#ded6bf"/><circle cx="370" cy="264" r="10" fill="#62855d"/><path d="M235 203c-38-45 35-58 5-103M303 207c-35-37 34-66 6-105M370 204c-34-42 33-63 6-106" fill="none" stroke="#8a8b7d" stroke-width="10" stroke-linecap="round" opacity=".72"/></svg>