<svg xmlns="http://www.w3.org/2000/svg" viewBox="0 0 900 540" role="img" aria-labelledby="t d"><title id="t">国道322号のドライブイラスト</title><desc id="d">山並み、道路、秋月の城門を組み合わせた旅のイラスト</desc><defs><linearGradient id="sky" x1="0" y1="0" x2="0" y2="1"><stop stop-color="#dfeee4"/><stop offset="1" stop-color="#f7f2e8"/></linearGradient><linearGradient id="road" x1="0" y1="0" x2="0" y2="1"><stop stop-color="#57675b"/><stop offset="1" stop-color="#29362f"/></linearGradient></defs><rect width="900" height="540" rx="36" fill="url(#sky)"/><circle cx="730" cy="115" r="62" fill="#e5a760" opacity=".9"/><path d="M0 365L155 185l105 138 135-184 160 206 124-148 221 236v107H0z" fill="#647a62"/><path d="M0 394l170-145 118 112 130-128 156 144 112-88 214 149v102H0z" fill="#405946"/><path d="M430 540c-8-106 12-203 75-290h94c55 90 78 185 86 290z" fill="url(#road)"/><path d="M552 270v250" stroke="#f8eed7" stroke-width="11" stroke-dasharray="42 34" opacity=".85"/><path d="M235 305h210v38H235z" fill="#2b211c"/><path d="M257 343h38v118h-38zm147 0h38v118h-38z" fill="#2b211c"/><path d="M220 295l125-68 125 68z" fill="#1d1714"/><rect x="246" y="382" width="204" height="84" rx="10" fill="#eadfca" opacity=".88"/><path d="M0 454c80-36 164-45 252-28 99 18 178 56 295 46 111-10 199-58 353-46v114H0z" fill="#f7f2e8" opacity=".92"/></svg>