<svg xmlns="http://www.w3.org/2000/svg" viewBox="0 0 420 300" role="img" aria-label="熊本城">
<rect width="420" height="300" rx="28" fill="#eef4f2"/>
<circle cx="330" cy="64" r="34" fill="#e9c46a"/>
<path d="M0 212 C86 178 144 218 224 192 C300 166 344 190 420 172 V300 H0Z" fill="#d9c8aa"/>
<g transform="translate(62 48)">
<path d="M18 202 h280 v28 H18z" fill="#283632"/>
<path d="M42 172 h230 v34 H42z" fill="#fffaf0"/>
<path d="M72 126 h170 v50 H72z" fill="#fffaf0"/>
<path d="M98 82 h118 v48 H98z" fill="#fffaf0"/>
<path d="M126 44 h70 v44 H126z" fill="#fffaf0"/>
<path d="M28 170 h250" stroke="#20302d" stroke-width="12" stroke-linecap="round"/>
<path d="M60 126 h194" stroke="#20302d" stroke-width="12" stroke-linecap="round"/>
<path d="M88 82 h134" stroke="#20302d" stroke-width="11" stroke-linecap="round"/>
<path d="M116 44 h90" stroke="#20302d" stroke-width="10" stroke-linecap="round"/>
<rect x="90" y="140" width="18" height="28" rx="3" fill="#2a9d8f"/><rect x="154" y="140" width="18" height="28" rx="3" fill="#2a9d8f"/><rect x="194" y="140" width="18" height="28" rx="3" fill="#2a9d8f"/>
<rect x="132" y="96" width="18" height="26" rx="3" fill="#2a9d8f"/><rect x="176" y="96" width="18" height="26" rx="3" fill="#2a9d8f"/>
</g>
</svg>
