<svg xmlns="http://www.w3.org/2000/svg" viewBox="0 0 760 520" role="img" aria-labelledby="t d">
<title id="t">宮崎・高千穂・熊本城の旅イラスト</title><desc id="d">海岸、モアイ、渓谷、鉄道、城を組み合わせた旅のイラスト</desc>
<defs>
  <linearGradient id="sky" x1="0" y1="0" x2="0" y2="1"><stop stop-color="#9ad7d2"/><stop offset="1" stop-color="#fff2ce"/></linearGradient>
  <linearGradient id="sea" x1="0" y1="0" x2="1" y2="0"><stop stop-color="#2a9d8f"/><stop offset="1" stop-color="#6ec6bf"/></linearGradient>
  <filter id="s" x="-20%" y="-20%" width="140%" height="140%"><feDropShadow dx="0" dy="14" stdDeviation="10" flood-color="#2a312d" flood-opacity=".15"/></filter>
</defs>
<rect width="760" height="520" rx="36" fill="url(#sky)"/>
<circle cx="620" cy="96" r="58" fill="#f4a261" opacity=".92"/>
<path d="M0 312 C100 278 154 337 250 308 C340 280 410 286 488 314 C573 345 650 312 760 296 L760 520 L0 520Z" fill="#f7d99b"/>
<path d="M0 350 C124 318 172 372 286 342 C398 312 446 338 552 358 C632 374 682 336 760 330 L760 520 L0 520Z" fill="url(#sea)" opacity=".88"/>
<path d="M38 398 C126 364 178 416 278 388 C402 354 480 415 592 388 C666 371 706 383 760 397 L760 520 L38 520Z" fill="#f0c987"/>
<g filter="url(#s)">
  <path d="M448 182 C466 148 498 126 538 126 C604 126 650 178 650 241 C650 288 618 331 572 346 C545 355 496 352 474 334 C438 306 426 225 448 182Z" fill="#244f50" opacity=".22"/>
  <path d="M470 180 C482 151 508 134 538 134 C591 134 631 179 631 232 C631 274 603 311 562 324 C535 333 504 325 485 304 C463 280 458 206 470 180Z" fill="#3f6f67"/>
  <path d="M511 184 C516 169 530 160 546 160 C575 160 598 187 598 218 C598 247 578 270 552 276 C531 281 513 270 507 250 C500 226 503 204 511 184Z" fill="#f2e8d2" opacity=".9"/>
</g>
<g transform="translate(132 238)" filter="url(#s)">
  <rect x="0" y="78" width="190" height="60" rx="30" fill="#205f59"/>
  <rect x="22" y="50" width="48" height="88" rx="18" fill="#675c4a"/>
  <rect x="78" y="30" width="58" height="108" rx="18" fill="#716451"/>
  <rect x="144" y="58" width="48" height="80" rx="16" fill="#675c4a"/>
  <circle cx="45" cy="82" r="5" fill="#2b2722"/><circle cx="101" cy="66" r="6" fill="#2b2722"/><circle cx="166" cy="86" r="5" fill="#2b2722"/>
  <path d="M35 104 h30 M92 90 h26 M156 108 h22" stroke="#2b2722" stroke-width="6" stroke-linecap="round"/>
</g>
<g transform="translate(358 345)" filter="url(#s)">
  <path d="M0 46 C38 0 100 0 140 46 L132 72 C94 44 42 44 8 72Z" fill="#2d8c7a"/>
  <rect x="18" y="55" width="106" height="22" rx="11" fill="#2a312d"/>
  <circle cx="42" cy="78" r="10" fill="#f7efe1"/><circle cx="98" cy="78" r="10" fill="#f7efe1"/>
</g>
<g transform="translate(532 330)" filter="url(#s)">
  <path d="M8 112 h150 V70 l-22-14 V32 h-26 v25 l-20-13-20 13V32H44v24L8 80z" fill="#fffaf0"/>
  <path d="M20 80 h136" stroke="#20302d" stroke-width="10" stroke-linecap="round"/>
  <path d="M56 48 h80" stroke="#20302d" stroke-width="9" stroke-linecap="round"/>
  <path d="M84 24 h48" stroke="#20302d" stroke-width="8" stroke-linecap="round"/>
  <rect x="62" y="86" width="16" height="26" rx="3" fill="#2a9d8f"/><rect x="112" y="86" width="16" height="26" rx="3" fill="#2a9d8f"/>
</g>
<path d="M80 466 C180 438 316 488 454 456 C554 432 618 456 710 438" fill="none" stroke="#fffaf0" stroke-width="12" stroke-linecap="round" opacity=".78"/>
</svg>
