<svg xmlns="http://www.w3.org/2000/svg" viewBox="0 0 900 600" role="img" aria-label="焼きカレーとプリンのイラスト">
  <rect width="900" height="600" rx="36" fill="#fff6e9"/>
  <ellipse cx="335" cy="430" rx="255" ry="80" fill="#d8c1a0" opacity=".55"/>
  <ellipse cx="335" cy="345" rx="270" ry="145" fill="#f4eee2" stroke="#896f4e" stroke-width="12"/>
  <ellipse cx="335" cy="345" rx="220" ry="105" fill="#915b28"/>
  <path d="M165 335 C210 270 285 250 365 292 C430 325 495 310 535 365 C485 425 238 432 165 335Z" fill="#c77a36"/>
  <circle cx="350" cy="327" r="54" fill="#f9e6b8"/><circle cx="350" cy="327" r="28" fill="#f8c36b"/>
  <path d="M230 285 L460 402" stroke="#ffe8a4" stroke-width="26" stroke-linecap="round" opacity=".75"/>
  <g transform="translate(610 145)">
    <ellipse cx="110" cy="350" rx="120" ry="32" fill="#d8c1a0" opacity=".45"/>
    <path d="M35 105h150l-22 235c-5 36-120 36-128 0z" fill="#f1c66d" stroke="#9c6b2d" stroke-width="10"/>
    <ellipse cx="110" cy="105" rx="75" ry="28" fill="#8a4a21"/>
    <path d="M55 145c35 30 82 30 125 0" fill="none" stroke="#fff1c7" stroke-width="10" opacity=".7"/>
  </g>
  <text x="70" y="95" font-family="sans-serif" font-size="58" font-weight="800" fill="#0f4c5c">Yaki Curry & Pudding</text>
</svg>