<svg xmlns="http://www.w3.org/2000/svg" viewBox="0 0 900 560" role="img" aria-labelledby="t d"><title id="t">関門海峡と巌流島のイラスト</title><desc id="d">海に浮かぶ島とフェリー、門司港のレトロ建築を描いた装飾イラスト</desc><defs><linearGradient id="sky" x1="0" x2="0" y1="0" y2="1"><stop offset="0" stop-color="#dff6fb"/><stop offset="1" stop-color="#fff7e6"/></linearGradient><linearGradient id="sea" x1="0" x2="1"><stop offset="0" stop-color="#2f7184"/><stop offset="1" stop-color="#75b7c3"/></linearGradient></defs><rect width="900" height="560" rx="46" fill="url(#sky)"/><circle cx="730" cy="92" r="52" fill="#f8c36b" opacity=".9"/><path d="M0 335c140-43 237-42 336 0s194 45 294 10 187-50 270-11v226H0z" fill="url(#sea)"/><path d="M548 275c48-44 105-63 165-45 67 21 95 70 121 105H454c20-25 49-44 94-60z" fill="#4f7b58" opacity=".85"/><path d="M86 322h259l-38 70H127z" fill="#fff"/><path d="M126 269h154l39 53H95z" fill="#0f4c5c"/><rect x="144" y="284" width="31" height="24" rx="5" fill="#dff6fb"/><rect x="190" y="284" width="31" height="24" rx="5" fill="#dff6fb"/><rect x="236" y="284" width="31" height="24" rx="5" fill="#dff6fb"/><path d="M70 391h270" stroke="#f8c36b" stroke-width="16" stroke-linecap="round"/><path d="M0 430c117-25 167 23 280 0s174-33 287 1 197 30 333-6" fill="none" stroke="#fff" stroke-width="12" opacity=".55"/><path d="M658 222l28-92 30 92" stroke="#16272d" stroke-width="8" stroke-linecap="round" fill="none"/><path d="M632 222h111" stroke="#16272d" stroke-width="9" stroke-linecap="round"/><path d="M660 116h53" stroke="#16272d" stroke-width="9" stroke-linecap="round"/><path d="M638 247h105" stroke="#16272d" stroke-width="18" stroke-linecap="round"/><path d="M420 275h72v79h-72z" fill="#e4572e"/><path d="M408 247h96v30h-96z" fill="#0f4c5c"/><rect x="438" y="296" width="21" height="58" rx="2" fill="#fff7e6"/><path d="M96 176h86v146H96z" fill="#f8c36b"/><path d="M80 159h118v24H80z" fill="#0f4c5c"/><path d="M104 200h18v34h-18zm37 0h18v34h-18z" fill="#fff7e6"/><path d="M36 323h804" stroke="#16272d" stroke-width="5" opacity=".12"/></svg>