<svg xmlns="http://www.w3.org/2000/svg" viewBox="0 0 900 600" role="img" aria-label="地図ルートのイラスト">
  <defs><linearGradient id="g" x1="0" x2="1" y1="0" y2="1"><stop stop-color="#f7f2ea"/><stop offset="1" stop-color="#d9eef0"/></linearGradient></defs>
  <rect width="900" height="600" rx="36" fill="url(#g)"/>
  <path d="M90 425 C220 310 275 510 390 390 S550 180 725 240" stroke="#0f4c5c" stroke-width="22" fill="none" stroke-linecap="round" stroke-dasharray="1 42"/>
  <g fill="#e4572e"><path d="M120 330c-48 0-86 38-86 85 0 73 86 150 86 150s86-77 86-150c0-47-38-85-86-85zm0 120a35 35 0 1 1 0-70 35 35 0 0 1 0 70z"/></g>
  <g fill="#0f4c5c"><path d="M730 105c-58 0-105 47-105 105 0 90 105 185 105 185s105-95 105-185c0-58-47-105-105-105zm0 150a45 45 0 1 1 0-90 45 45 0 0 1 0 90z"/></g>
  <circle cx="430" cy="356" r="58" fill="#f8c36b"/><text x="407" y="375" font-family="sans-serif" font-size="52" font-weight="700" fill="#0f4c5c">M</text>
</svg>