<svg xmlns="http://www.w3.org/2000/svg" viewBox="0 0 1200 800" role="img" aria-label="門司港レトロの港町イラスト">
  <defs>
    <linearGradient id="sky" x1="0" x2="1" y1="0" y2="1"><stop offset="0" stop-color="#edf8fb"/><stop offset="0.55" stop-color="#d5eef0"/><stop offset="1" stop-color="#f8efe4"/></linearGradient>
    <linearGradient id="water" x1="0" x2="1"><stop offset="0" stop-color="#2f7184"/><stop offset="1" stop-color="#0f4c5c"/></linearGradient>
    <filter id="shadow" x="-10%" y="-20%" width="120%" height="140%"><feDropShadow dx="0" dy="18" stdDeviation="18" flood-color="#0d2530" flood-opacity=".18"/></filter>
  </defs>
  <rect width="1200" height="800" fill="url(#sky)"/>
  <circle cx="920" cy="130" r="80" fill="#f8c36b" opacity=".9"/>
  <path d="M0 610 C180 560 280 660 430 610 S720 560 920 620 1120 650 1200 610 L1200 800 L0 800Z" fill="url(#water)"/>
  <path d="M0 660 C230 610 320 710 500 665 S780 610 1030 675 1160 705 1200 680" fill="none" stroke="#d6eef0" stroke-width="10" opacity=".8"/>
  <g filter="url(#shadow)">
    <rect x="150" y="330" width="270" height="210" rx="8" fill="#b95f3f"/>
    <rect x="185" y="370" width="42" height="74" rx="5" fill="#f4e8d4"/><rect x="252" y="370" width="42" height="74" rx="5" fill="#f4e8d4"/><rect x="319" y="370" width="42" height="74" rx="5" fill="#f4e8d4"/>
    <rect x="170" y="300" width="250" height="38" fill="#2d3d42"/><path d="M170 300 L240 230 L360 230 L420 300Z" fill="#405156"/>
    <rect x="500" y="270" width="340" height="270" rx="8" fill="#e8d9bd"/>
    <path d="M480 270 L610 160 L760 160 L860 270Z" fill="#3b4f55"/>
    <rect x="535" y="325" width="70" height="95" rx="8" fill="#35515b"/><rect x="650" y="325" width="70" height="95" rx="8" fill="#35515b"/><rect x="765" y="325" width="70" height="95" rx="8" fill="#35515b"/>
    <rect x="910" y="350" width="95" height="190" rx="8" fill="#f3e0bd"/><path d="M895 350 L957 270 L1020 350Z" fill="#455b60"/><rect x="935" y="385" width="42" height="68" rx="5" fill="#3b5960"/>
  </g>
  <g stroke="#0f4c5c" stroke-width="10" stroke-linecap="round" opacity=".75">
    <path d="M150 610 L450 510 L750 610" fill="none"/>
    <path d="M450 510 L450 610"/><path d="M230 580 L230 625"/><path d="M670 580 L670 625"/>
  </g>
  <text x="80" y="105" font-family="sans-serif" font-weight="700" font-size="64" fill="#0f4c5c">MOJIKO RETRO</text>
  <text x="84" y="158" font-family="sans-serif" font-size="28" fill="#8b5e34">Day Trip Shiori</text>
</svg>